<?xml version="1.0" standalone="no"?>
<!DOCTYPE svg PUBLIC "-//W3C//DTD SVG 20010904//EN"
 "http://www.w3.org/TR/2001/REC-SVG-20010904/DTD/svg10.dtd">
<svg version="1.0" xmlns="http://www.w3.org/2000/svg"
 width="434.000000pt" height="434.000000pt" viewBox="0 0 434.000000 434.000000"
 preserveAspectRatio="xMidYMid meet">
<metadata>
Created by potrace 1.11, written by Peter Selinger 2001-2013
</metadata>
<g transform="translate(0.000000,434.000000) scale(0.100000,-0.100000)"
fill="#000000" stroke="none">
<path d="M1100 4059 c-228 -19 -410 -79 -586 -194 -433 -282 -615 -856 -448
-1414 84 -280 251 -537 534 -822 186 -187 243 -237 705 -619 83 -69 163 -136
179 -150 157 -135 236 -209 392 -366 188 -191 219 -214 294 -214 74 0 105 23
293 213 208 210 278 273 542 491 105 86 199 165 210 174 11 10 45 38 75 62 30
25 57 47 60 50 3 3 54 48 115 100 126 109 380 359 446 440 62 75 169 218 169
224 0 3 17 31 37 63 58 91 151 304 169 388 1 6 9 39 17 75 44 187 43 424 -3
615 -37 154 -112 316 -201 436 -121 164 -309 302 -509 373 -263 95 -540 104
-771 25 -191 -65 -396 -197 -576 -372 l-72 -70 -73 69 c-40 38 -75 71 -78 74
-15 16 -143 112 -196 148 -34 22 -97 58 -140 80 -217 107 -369 139 -584 121z"/>
</g>
</svg>
